<mxfile host="app.diagrams.net" modified="2024-01-05T11:32:49.038Z" agent="Mozilla/5.0 (Windows NT 10.0; Win64; x64) AppleWebKit/537.36 (KHTML, like Gecko) Chrome/120.0.0.0 Safari/537.36" etag="RJ8eHxkV2wi_OTeP2Bbz" version="22.1.16" type="device">
  <diagram id="C5RBs43oDa-KdzZeNtuy" name="Page-1">
    <mxGraphModel dx="875" dy="471" grid="1" gridSize="10" guides="1" tooltips="1" connect="1" arrows="1" fold="1" page="1" pageScale="1" pageWidth="827" pageHeight="1169" math="0" shadow="0">
      <root>
        <mxCell id="WIyWlLk6GJQsqaUBKTNV-0" />
        <mxCell id="WIyWlLk6GJQsqaUBKTNV-1" parent="WIyWlLk6GJQsqaUBKTNV-0" />
        <mxCell id="Bq9OjmaeMTnmp6eDlj87-2" style="edgeStyle=orthogonalEdgeStyle;rounded=0;orthogonalLoop=1;jettySize=auto;html=1;" edge="1" parent="WIyWlLk6GJQsqaUBKTNV-1" source="Bq9OjmaeMTnmp6eDlj87-0" target="Bq9OjmaeMTnmp6eDlj87-1">
          <mxGeometry relative="1" as="geometry" />
        </mxCell>
        <mxCell id="Bq9OjmaeMTnmp6eDlj87-0" value="" style="ellipse;whiteSpace=wrap;html=1;aspect=fixed;" vertex="1" parent="WIyWlLk6GJQsqaUBKTNV-1">
          <mxGeometry x="384" y="70" width="30" height="30" as="geometry" />
        </mxCell>
        <mxCell id="Bq9OjmaeMTnmp6eDlj87-6" style="edgeStyle=orthogonalEdgeStyle;rounded=0;orthogonalLoop=1;jettySize=auto;html=1;" edge="1" parent="WIyWlLk6GJQsqaUBKTNV-1" source="Bq9OjmaeMTnmp6eDlj87-1" target="Bq9OjmaeMTnmp6eDlj87-3">
          <mxGeometry relative="1" as="geometry" />
        </mxCell>
        <mxCell id="Bq9OjmaeMTnmp6eDlj87-1" value="Массив строк&lt;br&gt;arr" style="shape=parallelogram;perimeter=parallelogramPerimeter;whiteSpace=wrap;html=1;fixedSize=1;" vertex="1" parent="WIyWlLk6GJQsqaUBKTNV-1">
          <mxGeometry x="339" y="130" width="120" height="40" as="geometry" />
        </mxCell>
        <mxCell id="Bq9OjmaeMTnmp6eDlj87-5" style="edgeStyle=orthogonalEdgeStyle;rounded=0;orthogonalLoop=1;jettySize=auto;html=1;" edge="1" parent="WIyWlLk6GJQsqaUBKTNV-1" source="Bq9OjmaeMTnmp6eDlj87-3" target="Bq9OjmaeMTnmp6eDlj87-4">
          <mxGeometry relative="1" as="geometry" />
        </mxCell>
        <mxCell id="Bq9OjmaeMTnmp6eDlj87-3" value="string newArr()" style="rounded=1;whiteSpace=wrap;html=1;" vertex="1" parent="WIyWlLk6GJQsqaUBKTNV-1">
          <mxGeometry x="339" y="200" width="120" height="40" as="geometry" />
        </mxCell>
        <mxCell id="Bq9OjmaeMTnmp6eDlj87-9" style="edgeStyle=orthogonalEdgeStyle;rounded=0;orthogonalLoop=1;jettySize=auto;html=1;" edge="1" parent="WIyWlLk6GJQsqaUBKTNV-1" source="Bq9OjmaeMTnmp6eDlj87-4" target="Bq9OjmaeMTnmp6eDlj87-8">
          <mxGeometry relative="1" as="geometry">
            <Array as="points">
              <mxPoint x="509" y="300" />
            </Array>
          </mxGeometry>
        </mxCell>
        <mxCell id="Bq9OjmaeMTnmp6eDlj87-17" style="edgeStyle=orthogonalEdgeStyle;rounded=0;orthogonalLoop=1;jettySize=auto;html=1;entryX=0.5;entryY=0;entryDx=0;entryDy=0;" edge="1" parent="WIyWlLk6GJQsqaUBKTNV-1" source="Bq9OjmaeMTnmp6eDlj87-4" target="Bq9OjmaeMTnmp6eDlj87-18">
          <mxGeometry relative="1" as="geometry">
            <mxPoint x="260" y="510.0000000000001" as="targetPoint" />
            <Array as="points">
              <mxPoint x="230" y="300" />
              <mxPoint x="230" y="500" />
              <mxPoint x="400" y="500" />
            </Array>
          </mxGeometry>
        </mxCell>
        <mxCell id="Bq9OjmaeMTnmp6eDlj87-4" value="i &amp;lt; arr.length()" style="rhombus;whiteSpace=wrap;html=1;" vertex="1" parent="WIyWlLk6GJQsqaUBKTNV-1">
          <mxGeometry x="318.5" y="270" width="161" height="60" as="geometry" />
        </mxCell>
        <mxCell id="Bq9OjmaeMTnmp6eDlj87-16" style="edgeStyle=orthogonalEdgeStyle;rounded=0;orthogonalLoop=1;jettySize=auto;html=1;entryX=0.5;entryY=1;entryDx=0;entryDy=0;" edge="1" parent="WIyWlLk6GJQsqaUBKTNV-1" source="Bq9OjmaeMTnmp6eDlj87-7" target="Bq9OjmaeMTnmp6eDlj87-4">
          <mxGeometry relative="1" as="geometry" />
        </mxCell>
        <mxCell id="Bq9OjmaeMTnmp6eDlj87-7" value="newArr.Add(arr[i])" style="rounded=1;whiteSpace=wrap;html=1;" vertex="1" parent="WIyWlLk6GJQsqaUBKTNV-1">
          <mxGeometry x="560" y="440" width="120" height="40" as="geometry" />
        </mxCell>
        <mxCell id="Bq9OjmaeMTnmp6eDlj87-10" style="edgeStyle=orthogonalEdgeStyle;rounded=0;orthogonalLoop=1;jettySize=auto;html=1;entryX=0.5;entryY=0;entryDx=0;entryDy=0;" edge="1" parent="WIyWlLk6GJQsqaUBKTNV-1" source="Bq9OjmaeMTnmp6eDlj87-8" target="Bq9OjmaeMTnmp6eDlj87-7">
          <mxGeometry relative="1" as="geometry">
            <Array as="points">
              <mxPoint x="620" y="385" />
            </Array>
          </mxGeometry>
        </mxCell>
        <mxCell id="Bq9OjmaeMTnmp6eDlj87-8" value="arr[i].length &amp;lt;= 3" style="rhombus;whiteSpace=wrap;html=1;" vertex="1" parent="WIyWlLk6GJQsqaUBKTNV-1">
          <mxGeometry x="439" y="350" width="140" height="70" as="geometry" />
        </mxCell>
        <mxCell id="Bq9OjmaeMTnmp6eDlj87-11" style="edgeStyle=orthogonalEdgeStyle;rounded=0;orthogonalLoop=1;jettySize=auto;html=1;exitX=0.5;exitY=1;exitDx=0;exitDy=0;" edge="1" parent="WIyWlLk6GJQsqaUBKTNV-1" source="Bq9OjmaeMTnmp6eDlj87-7" target="Bq9OjmaeMTnmp6eDlj87-7">
          <mxGeometry relative="1" as="geometry" />
        </mxCell>
        <mxCell id="Bq9OjmaeMTnmp6eDlj87-14" value="Да" style="text;html=1;align=center;verticalAlign=middle;resizable=0;points=[];autosize=1;strokeColor=none;fillColor=none;" vertex="1" parent="WIyWlLk6GJQsqaUBKTNV-1">
          <mxGeometry x="460" y="258" width="40" height="30" as="geometry" />
        </mxCell>
        <mxCell id="Bq9OjmaeMTnmp6eDlj87-15" value="Да" style="text;html=1;align=center;verticalAlign=middle;resizable=0;points=[];autosize=1;strokeColor=none;fillColor=none;" vertex="1" parent="WIyWlLk6GJQsqaUBKTNV-1">
          <mxGeometry x="570" y="358" width="40" height="30" as="geometry" />
        </mxCell>
        <mxCell id="Bq9OjmaeMTnmp6eDlj87-21" style="edgeStyle=orthogonalEdgeStyle;rounded=0;orthogonalLoop=1;jettySize=auto;html=1;entryX=0.5;entryY=0;entryDx=0;entryDy=0;" edge="1" parent="WIyWlLk6GJQsqaUBKTNV-1" source="Bq9OjmaeMTnmp6eDlj87-18" target="Bq9OjmaeMTnmp6eDlj87-20">
          <mxGeometry relative="1" as="geometry" />
        </mxCell>
        <mxCell id="Bq9OjmaeMTnmp6eDlj87-18" value="newArr" style="shape=document;whiteSpace=wrap;html=1;boundedLbl=1;" vertex="1" parent="WIyWlLk6GJQsqaUBKTNV-1">
          <mxGeometry x="340" y="520" width="120" height="50" as="geometry" />
        </mxCell>
        <mxCell id="Bq9OjmaeMTnmp6eDlj87-19" value="Нет" style="text;html=1;align=center;verticalAlign=middle;resizable=0;points=[];autosize=1;strokeColor=none;fillColor=none;" vertex="1" parent="WIyWlLk6GJQsqaUBKTNV-1">
          <mxGeometry x="260" y="268" width="40" height="30" as="geometry" />
        </mxCell>
        <mxCell id="Bq9OjmaeMTnmp6eDlj87-20" value="" style="ellipse;whiteSpace=wrap;html=1;aspect=fixed;" vertex="1" parent="WIyWlLk6GJQsqaUBKTNV-1">
          <mxGeometry x="380" y="630" width="40" height="40" as="geometry" />
        </mxCell>
      </root>
    </mxGraphModel>
  </diagram>
</mxfile>
